<?xml version="1.0" encoding="UTF-8" standalone="no"?>
<svg
   width="173.85548mm"
   height="173.83173mm"
   viewBox="0 0 656.99931 656.91021"
   version="1.1"
   id="svg10"
   sodipodi:docname="backbutton.svg"
   inkscape:version="1.2 (dc2aedaf03, 2022-05-15)"
   xml:space="preserve"
   xmlns:inkscape="http://www.inkscape.org/namespaces/inkscape"
   xmlns:sodipodi="http://sodipodi.sourceforge.net/DTD/sodipodi-0.dtd"
   xmlns="http://www.w3.org/2000/svg"
   xmlns:svg="http://www.w3.org/2000/svg"><defs
     id="defs14" /><sodipodi:namedview
     id="namedview12"
     pagecolor="#505050"
     bordercolor="#eeeeee"
     borderopacity="1"
     inkscape:showpageshadow="0"
     inkscape:pageopacity="0"
     inkscape:pagecheckerboard="0"
     inkscape:deskcolor="#505050"
     inkscape:document-units="mm"
     showgrid="false"
     inkscape:zoom="1.2417623"
     inkscape:cx="297.56097"
     inkscape:cy="329.3706"
     inkscape:window-width="1920"
     inkscape:window-height="1027"
     inkscape:window-x="-8"
     inkscape:window-y="389"
     inkscape:window-maximized="1"
     inkscape:current-layer="svg10" /><path
     id="Selection"
     fill="none"
     stroke="#000000"
     stroke-width="1"
     d="M 25.999638,1.9831029e-4 H 622.99964 c 20.41,-0.0600000003 33.97,13.49999968971 34,33.90999968971 V 622.9102 c -0.03,20.41 -13.59,33.97 -34,34 H 33.999638 c -20.41,-0.03 -33.97000022,-13.59 -34.00000022268,-34 V 33.910198 C 0.02963778,17.070198 9.2796378,4.3501983 25.999638,1.9831029e-4 Z M 610.99964,45.910198 H 45.999638 V 610.9102 H 610.99964 Z m -464,155.750002 c 0.47312,5.61195 2.98,47 2.98,47 l 63.02,-3.09 81,-3.91 65,-1 21,1 35,2.84 c 29.91,3.19 65.17125,10.27797 91,26.22 14.82125,9.14797 29.42,21.97 38.54,36.94 28.59,46.96 10.61,103.67 -34.54,132.57 -45.65,29.22 -104.31,34.56 -157,39.6 l -54,3.83 -46,2 -3,-62 56,-3 50,-3.83 c 27.5,-2.75 57.47,-5.98 84,-13.89 20.97,-6.25 54.33,-19.64 55.91,-45.28 0.66,-10.87 -6.22,-19.97 -13.91,-26.83 -16.65,-14.86 -42.64,-19.43 -64,-22.92 -19.49,-3.19 -40.27,-4.22 -60,-4.25 h -42 l -109,4.91 -54,3.09 2,47 -69.130002,-76 z"
     sodipodi:nodetypes="cccccccccccccccccccccscsccccccccccccccccc"
     style="fill:#ffffff;fill-opacity:1;stroke:none;stroke-width:0;stroke-dasharray:none" /></svg>
