<?xml version="1.0" encoding="UTF-8" standalone="no"?>
<!-- Created with Inkscape (http://www.inkscape.org/) -->

<svg
   width="173.56667mm"
   height="173.64705mm"
   viewBox="0 0 173.56667 173.64705"
   version="1.1"
   id="svg5"
   xml:space="preserve"
   inkscape:export-filename="eventbrowserbtn.svg"
   inkscape:export-xdpi="96"
   inkscape:export-ydpi="96"
   xmlns:inkscape="http://www.inkscape.org/namespaces/inkscape"
   xmlns:sodipodi="http://sodipodi.sourceforge.net/DTD/sodipodi-0.dtd"
   xmlns="http://www.w3.org/2000/svg"
   xmlns:svg="http://www.w3.org/2000/svg"><sodipodi:namedview
     id="namedview7"
     pagecolor="#505050"
     bordercolor="#eeeeee"
     borderopacity="1"
     inkscape:showpageshadow="0"
     inkscape:pageopacity="0"
     inkscape:pagecheckerboard="0"
     inkscape:deskcolor="#505050"
     inkscape:document-units="mm"
     showgrid="false" /><defs
     id="defs2" /><g
     inkscape:label="Layer 1"
     inkscape:groupmode="layer"
     id="layer1"
     transform="translate(-18.676056,-31.954505)"><path
       style="fill:#ffffff;stroke-width:0.264583"
       d="m 24.43547,205.13703 c -2.369759,-0.85445 -4.117725,-2.4535 -5.190183,-4.748 l -0.56923,-1.21786 V 118.73784 38.304504 l 0.759489,-1.498792 c 0.934544,-1.844251 2.228517,-3.128979 4.135303,-4.105756 l 1.455208,-0.745451 h 80.433333 80.43333 l 1.53207,0.77578 c 1.79019,0.906486 3.4144,2.565215 4.23546,4.325466 l 0.58247,1.248753 v 80.433336 80.43333 l -0.58247,1.24875 c -0.82404,1.76664 -2.53195,3.51184 -4.27452,4.36784 l -1.49301,0.73341 -80.03645,0.0575 c -77.844002,0.0559 -80.074384,0.0438 -81.4208,-0.44164 z M 180.20418,118.73784 V 43.993046 H 105.45939 30.714599 v 74.744794 74.74479 h 74.744791 74.74479 z M 66.168765,168.44405 c 0,-11.03228 0.0611,-11.53503 1.5875,-13.06142 1.330627,-1.33063 2.480826,-1.5875 7.108301,-1.5875 h 4.004199 v -3.21045 c 0,-3.78424 0.316627,-5.04368 1.5875,-6.31455 1.353336,-1.35334 2.456331,-1.5875 7.477689,-1.5875 h 4.373586 l 0.4249,-2.31511 c 0.561647,-3.06016 0.535379,-4.40657 -0.128503,-6.58671 -0.737341,-2.42138 -2.225405,-3.95636 -8.509651,-8.77793 -0.982265,-0.75364 -2.589609,-1.98821 -3.571875,-2.7435 -3.009175,-2.31383 -7.598013,-6.44904 -9.502447,-8.5631 -3.803684,-4.22236 -6.574179,-9.10232 -8.178324,-14.405318 l -0.840374,-2.778125 -1.42198,-0.212802 C 54.60844,95.406489 54.087343,95.282749 51.96095,94.253517 49.495131,93.059993 48.279373,91.75226 47.464761,89.41718 46.526414,86.72741 47.071535,79.9042 48.731612,73.560233 l 0.259633,-0.992187 h 5.243428 5.243428 l 0.170924,-2.050521 c 0.09604,-1.152152 0.05474,-2.455471 -0.09425,-2.974816 -0.913532,-3.184224 0.86447,-6.124324 4.940244,-8.169167 2.888832,-1.449345 7.828355,-2.570718 14.109166,-3.203064 6.013177,-0.605399 24.041835,-1.116175 33.469785,-0.94824 20.17334,0.359333 28.12797,1.300075 33.60209,3.973906 2.56419,1.252482 4.09951,2.552621 4.92489,4.170492 0.47681,0.934615 0.50454,1.355109 0.33703,5.109914 l -0.18252,4.091496 h 5.46394 c 3.00517,0 5.46395,0.06161 5.46395,0.136908 0,0.0753 0.22435,1.236157 0.49855,2.579688 1.38424,6.782466 1.71726,9.691552 1.36316,11.907795 -0.56535,3.538376 -2.12696,5.859486 -4.82653,7.173928 -1.8306,0.891336 -5.06917,1.665338 -7.90797,1.889966 l -2.27383,0.179925 -0.7328,2.551832 c -0.89863,3.129272 -2.79801,7.228722 -4.70226,10.148962 -2.85022,4.37091 -9.71087,10.86886 -17.53395,16.60699 -0.87312,0.64042 -2.73349,2.15328 -4.13415,3.36191 -2.79885,2.41512 -3.44395,3.46176 -3.8993,6.32645 -0.22369,1.4073 0.15846,5.69119 0.61727,6.9195 0.0918,0.24585 1.22123,0.33073 4.40062,0.33073 4.91838,0 6.03353,0.23984 7.38119,1.5875 1.27087,1.27087 1.5875,2.53031 1.5875,6.31455 v 3.21045 h 4.0042 c 4.62747,0 5.77767,0.25687 7.1083,1.5875 1.5264,1.52639 1.5875,2.02914 1.5875,13.06142 v 9.95733 H 105.19481 66.168765 Z m 72.760415,-2.3458 v -7.01146 H 105.19481 71.460432 v 7.01146 7.01146 h 33.734378 33.73437 z m -12.7,-15.21354 v -2.91042 H 105.19481 84.160432 v 2.91042 2.91042 h 21.034378 21.03437 z m -15.4647,-8.79739 c -0.0993,-0.32743 -0.24577,-2.26219 -0.32545,-4.29948 -0.28957,-7.40457 0.91785,-9.94996 6.53811,-13.7831 5.15383,-3.51502 11.86154,-9.09918 15.74529,-13.10793 7.51333,-7.75516 9.80721,-14.282119 11.09934,-31.58189 0.52506,-7.029772 0.52193,-7.380282 -0.0639,-7.153158 -2.29329,0.889026 -4.59379,1.124754 -19.9099,2.040141 -12.91047,0.771612 -24.395772,0.771612 -37.306248,0 -15.316113,-0.915387 -17.616609,-1.151115 -19.909896,-2.040141 -0.585872,-0.227124 -0.589005,0.123386 -0.06394,7.153158 1.05692,14.150613 2.882159,21.01343 7.208096,27.10211 3.145846,4.42773 12.100044,12.44767 19.636539,17.58771 5.620256,3.83314 6.827679,6.37853 6.538103,13.7831 -0.07967,2.03729 -0.226126,3.97205 -0.325448,4.29948 l -0.180583,0.59531 h 5.750257 5.75026 z M 60.783801,89.699816 c -0.08436,-0.618463 -0.345979,-3.208073 -0.581379,-5.754687 -0.235397,-2.546615 -0.479819,-4.898099 -0.543158,-5.225521 -0.110548,-0.571458 -0.22456,-0.595313 -2.845255,-0.595313 h -2.730093 l -0.439867,2.46262 c -0.568269,3.181477 -0.578974,6.555071 -0.02421,7.627874 0.509915,0.986065 2.139368,1.752386 4.724484,2.221886 2.76101,0.501447 2.614422,0.545725 2.439475,-0.736859 z m 93.264049,0.162814 c 2.95903,-0.878737 3.49098,-2.380104 2.74223,-7.73952 -0.25644,-1.835547 -0.52325,-3.486184 -0.59292,-3.668085 -0.0895,-0.23376 -0.89413,-0.33073 -2.7442,-0.33073 -2.31037,0 -2.61942,0.05433 -2.63362,0.463021 -0.009,0.254662 -0.28357,3.065415 -0.61049,6.246119 l -0.59441,5.783096 1.53043,-0.173148 c 0.84173,-0.09523 2.14808,-0.356572 2.90298,-0.580753 z M 117.36564,70.050268 c 10.73527,-0.502587 18.75996,-1.286462 22.67154,-2.214623 2.92824,-0.694831 4.41689,-2.212467 3.16475,-3.226385 -0.862,-0.698005 -4.5484,-1.75283 -8.19239,-2.344166 -6.15283,-0.998469 -11.61076,-1.206622 -31.53452,-1.202669 -16.27574,0.0032 -19.530634,0.06934 -23.306492,0.473395 -5.383162,0.576051 -9.928553,1.484088 -11.952515,2.38777 -1.592844,0.711189 -2.048576,1.280228 -1.601509,1.999689 1.214262,1.954096 6.808102,3.048235 19.746708,3.8624 11.878853,0.74748 19.331378,0.811078 31.004428,0.264589 z"
       id="path1229" /></g></svg>
