<?xml version="1.0" encoding="UTF-8" standalone="no"?>
<!-- Created with Inkscape (http://www.inkscape.org/) -->

<svg
   width="173.56667mm"
   height="173.64708mm"
   viewBox="0 0 173.56667 173.64708"
   version="1.1"
   id="svg958"
   xml:space="preserve"
   inkscape:export-filename="tuningbutton.svg"
   inkscape:export-xdpi="96"
   inkscape:export-ydpi="96"
   xmlns:inkscape="http://www.inkscape.org/namespaces/inkscape"
   xmlns:sodipodi="http://sodipodi.sourceforge.net/DTD/sodipodi-0.dtd"
   xmlns="http://www.w3.org/2000/svg"
   xmlns:svg="http://www.w3.org/2000/svg"><sodipodi:namedview
     id="namedview960"
     pagecolor="#505050"
     bordercolor="#eeeeee"
     borderopacity="1"
     inkscape:showpageshadow="0"
     inkscape:pageopacity="0"
     inkscape:pagecheckerboard="0"
     inkscape:deskcolor="#505050"
     inkscape:document-units="mm"
     showgrid="false" /><defs
     id="defs955" /><g
     inkscape:label="Layer 1"
     inkscape:groupmode="layer"
     id="layer1"
     transform="translate(-14.34794,-26.826144)"><path
       style="fill:#ffffff;fill-opacity:1;stroke-width:0.264583"
       d="m 20.107353,200.00867 c -2.369759,-0.85445 -4.117725,-2.4535 -5.190183,-4.748 l -0.56923,-1.21786 V 113.60948 33.176143 l 0.759489,-1.498792 c 0.934545,-1.844251 2.228517,-3.128979 4.135303,-4.105756 l 1.455208,-0.745451 h 80.43333 80.43333 l 1.53207,0.77578 c 1.79019,0.906486 3.4144,2.565215 4.23546,4.325466 l 0.58247,1.248753 v 80.433337 80.43333 l -0.58247,1.24875 c -0.82403,1.76664 -2.53195,3.51184 -4.27452,4.36784 l -1.49301,0.73341 -80.03645,0.0575 c -77.843999,0.0559 -80.074381,0.0438 -81.420797,-0.44164 z M 175.87606,113.60948 V 38.864685 H 101.13127 26.386482 v 74.744795 74.74479 h 74.744788 74.74479 z M 65.654691,170.28431 C 51.58602,160.67657 41.728029,146.10505 38.589594,130.27823 c -1.121304,-5.65463 -1.222705,-6.79244 -1.202539,-13.49375 0.01783,-5.9245 0.09206,-7.01484 0.711586,-10.45105 2.340184,-12.979962 7.872588,-23.98285 16.736957,-33.286595 7.782666,-8.168426 17.048962,-13.906153 27.811217,-17.220824 6.526779,-2.010182 12.704181,-2.797619 20.336535,-2.592305 6.01541,0.161816 9.32046,0.603818 14.38935,1.924367 11.13118,2.899899 20.80861,8.450527 29.01419,16.641506 4.86566,4.856993 7.99985,9.033203 11.2233,14.954688 5.84928,10.745113 8.50402,23.609073 7.41385,35.924903 -1.66558,18.81634 -11.66372,36.03669 -27.24798,46.9307 -0.94588,0.66121 -2.09912,1.4199 -2.56276,1.68597 l -0.84297,0.48377 -9.42766,-9.30746 -9.42767,-9.30747 -14.07103,0.005 -14.07103,0.005 -9.567307,9.3881 c -5.262017,5.16345 -9.607798,9.38263 -9.657291,9.37595 -0.04949,-0.007 -1.171634,-0.75082 -2.493651,-1.65365 z m 35.741149,-24.26338 h 17.19497 l 8.65014,8.64717 8.65014,8.64716 1.27322,-0.98959 c 10.81393,-8.40499 18.62123,-21.57894 21.02551,-35.47818 0.78346,-4.52926 0.9598,-12.65337 0.36772,-16.94218 -1.04581,-7.57559 -2.9861,-13.797392 -6.14707,-19.711459 C 140.75379,68.384607 117.14179,56.396259 92.796899,59.926687 67.725797,63.56243 47.772128,83.490744 44.094317,108.56739 c -0.939856,6.40826 -0.654619,15.20061 0.679794,20.95448 1.990741,8.58391 5.403368,15.84128 10.803805,22.97561 1.854287,2.44963 6.613673,7.31034 9.298011,9.49595 l 1.844654,1.50194 8.740138,-8.73722 8.74014,-8.73722 z m -35.881433,10.4829 c -1.563746,-0.55883 -2.528703,-1.40802 -3.254116,-2.86374 -0.905685,-1.81747 -0.90088,-3.37632 0.01609,-5.21642 2.66138,-5.34069 10.694434,-3.39492 10.745671,2.60282 0.03363,3.93627 -3.863602,6.77957 -7.507634,5.47734 z m 67.427313,-0.5004 c -5.38656,-1.75546 -5.23042,-9.51925 0.22215,-11.04587 3.72622,-1.04328 7.52458,2.07884 7.2058,5.92293 -0.30924,3.72906 -3.9661,6.25114 -7.42795,5.12294 z M 98.722586,124.495 c -3.632202,-1.19024 -5.874155,-4.53598 -5.600684,-8.35809 0.27763,-3.88024 3.207845,-6.95973 6.994208,-7.35052 1.35827,-0.14019 1.58809,-0.28376 4.5303,-2.83007 1.70469,-1.47532 7.02851,-6.059741 11.83069,-10.187609 4.80219,-4.127865 9.00333,-7.750407 9.33586,-8.050093 l 0.6046,-0.544883 2.08209,2.105369 2.08209,2.105372 -10.65726,12.303124 -10.65726,12.30313 -0.137,1.48521 c -0.26695,2.89385 -1.9404,5.31676 -4.54203,6.57619 -1.54543,0.74813 -4.29951,0.95607 -5.865604,0.44287 z m 47.123264,-2.25102 c -5.62306,-2.56094 -3.82792,-10.92126 2.34503,-10.92126 3.19242,0 5.72477,2.53304 5.72477,5.72634 0,4.10618 -4.33413,6.89627 -8.0698,5.19492 z M 51.125024,121.9714 c -4.403257,-2.03864 -4.416719,-8.13886 -0.02294,-10.39795 1.607685,-0.8266 4.247859,-0.60037 5.762342,0.49377 1.504659,1.08705 2.368233,2.77126 2.368053,4.61838 -1.72e-4,1.7607 -0.287814,2.54081 -1.406729,3.81518 -1.656813,1.88701 -4.468519,2.5041 -6.700721,1.47062 z M 131.72816,89.093494 c -1.41671,-0.701252 -2.55746,-2.221262 -2.91371,-3.88244 -0.82558,-3.849531 2.17922,-7.200368 6.16072,-6.870189 4.5837,0.380116 6.82377,5.922597 3.79012,9.377724 -1.73524,1.97634 -4.66547,2.548842 -7.03713,1.374905 z M 65.14794,88.961779 c -2.261579,-1.188519 -3.457416,-3.30404 -3.254028,-5.756613 0.415329,-5.008351 6.621084,-6.974655 9.977623,-3.161425 2.460003,2.794709 1.636159,7.213875 -1.640563,8.800108 -1.398968,0.67723 -3.907996,0.735441 -5.083032,0.11793 z M 98.674308,74.550841 c -1.741554,-0.86205 -2.797837,-2.580098 -2.92213,-4.752851 -0.07816,-1.366308 0.01529,-1.96638 0.432657,-2.778125 2.831875,-5.507805 10.868185,-3.677661 10.893755,2.480882 0.009,2.192316 -1.57978,4.600627 -3.51715,5.331044 -1.26364,0.476412 -3.632158,0.340249 -4.887132,-0.28095 z"
       id="path1091" /></g></svg>
