<?xml version="1.0" encoding="UTF-8" standalone="no"?>
<!-- Created with Inkscape (http://www.inkscape.org/) -->

<svg
   version="1.1"
   id="svg1050"
   width="656.73932"
   height="656.44836"
   viewBox="0 0 656.73932 656.44836"
   sodipodi:docname="gearbutton.svg"
   inkscape:export-filename="gearbutton.svg"
   inkscape:export-xdpi="96"
   inkscape:export-ydpi="96"
   inkscape:version="1.2 (dc2aedaf03, 2022-05-15)"
   xmlns:inkscape="http://www.inkscape.org/namespaces/inkscape"
   xmlns:sodipodi="http://sodipodi.sourceforge.net/DTD/sodipodi-0.dtd"
   xmlns="http://www.w3.org/2000/svg"
   xmlns:svg="http://www.w3.org/2000/svg">
  <defs
     id="defs1054" />
  <sodipodi:namedview
     id="namedview1052"
     pagecolor="#505050"
     bordercolor="#eeeeee"
     borderopacity="1"
     inkscape:showpageshadow="0"
     inkscape:pageopacity="0"
     inkscape:pagecheckerboard="0"
     inkscape:deskcolor="#505050"
     showgrid="false"
     inkscape:zoom="1.2082111"
     inkscape:cx="307.47937"
     inkscape:cy="295.47816"
     inkscape:window-width="1920"
     inkscape:window-height="1027"
     inkscape:window-x="-8"
     inkscape:window-y="389"
     inkscape:window-maximized="1"
     inkscape:current-layer="g1056" />
  <g
     inkscape:groupmode="layer"
     inkscape:label="Image"
     id="g1056"
     transform="translate(-19.108584,-12.5)">
    <path
       style="display:inline;fill:#ffffff;fill-opacity:1"
       d="m 42.288693,667.18891 c -7.118041,-2.30685 -13.724419,-7.2315 -17.345112,-12.92972 -6.427827,-10.11605 -5.981699,14.60127 -5.700104,-315.80865 L 19.5,37.457787 22.770544,30.814448 c 3.746363,-7.609854 8.268938,-12.00095 16.183825,-15.713335 L 44.5,12.5 h 303.02103 303.02102 l 6.64342,3.270544 c 7.60992,3.74635 12.00101,8.268899 15.71342,16.183825 L 675.5,37.5 l 0.25652,300.97165 c 0.23136,271.43935 0.10197,301.5033 -1.3186,306.38988 -3.39409,11.67526 -10.77101,19.08113 -22.46601,22.55417 -4.81849,1.43094 -34.33344,1.57839 -304.90341,1.52321 -278.351169,-0.0568 -299.937598,-0.18072 -304.779807,-1.75 z M 630,58 c -188.33333,0 -376.66667,0 -565,0 0,188.33333 0,376.66667 0,565 188.33333,0 376.66667,0 565,0 0,-188.33333 0,-376.66667 0,-565 z M 305,558.15087 v -29.84912 l -10.75,-2.77293 c -17.20319,-4.43751 -36.91214,-12.78739 -50.15427,-21.24834 l -5.40427,-3.45301 -19.10511,19.08627 C 209.07854,530.41118 200.03215,539 199.48327,539 c -0.54889,0 -12.46585,-11.47449 -26.48214,-25.49887 l -25.48416,-25.49886 19.3227,-19.34178 19.3227,-19.34178 -4.1675,-6.40936 c -6.4053,-9.85092 -14.51285,-27.13803 -18.95174,-40.40935 -2.20752,-6.6 -4.0203,-12.7875 -4.0284,-13.75 C 159.00108,387.12858 157.08963,387 133,387 H 107 V 349.5 312 h 24.32715 24.32715 l 1.1844,-6.428 c 3.12512,-16.96065 11.06608,-38.57393 20.20695,-54.99821 l 6.08094,-10.9262 -17.06162,-17.08254 -17.06162,-17.08255 26.49634,-26.48219 26.49635,-26.4822 16.84346,16.8216 16.84345,16.82159 6.40853,-4.16335 c 13.37862,-8.69154 35.84686,-18.2167 55.65852,-23.59579 0.9593,-0.26046 1.25,-6.39334 1.25,-26.37078 V 106 h 37.5 37.5 v 24.8297 24.8297 l 8.25,1.7411 c 17.41323,3.67493 40.29991,12.59242 57.04678,22.22751 l 4.79678,2.75976 19.71133,-19.69285 19.71134,-19.69285 26.24003,26.25406 26.24004,26.25406 -19.15038,19.15038 -19.15038,19.15039 4.73904,7.34452 c 9.90389,15.34895 19.51017,38.24588 24.583,58.59452 l 1.05951,4.25 H 557.53854 587 v 36.9849 36.98489 l -29.14785,0.26511 -29.14785,0.2651 -3.20326,12.19422 c -3.98299,15.16249 -8.00034,25.46439 -15.82693,40.58576 l -6.09714,11.77999 21.71095,21.72779 21.71096,21.72779 -25.99858,25.98415 -25.99858,25.98416 -20.75959,-20.74193 C 462.82436,506.33387 453.1908,497 452.83422,497 c -0.35658,0 -3.72765,2.03249 -7.49127,4.51666 -15.36689,10.14284 -32.92959,17.93988 -52.84295,23.45986 l -13,3.6036 -0.26488,29.70994 L 378.97024,588 H 341.98512 305 Z m 64,-92.03372 c 12.71798,-2.74413 19.56988,-5.16995 31.56482,-11.17509 31.53828,-15.78932 55.76979,-45.16873 65.32246,-79.2 9.63455,-34.32296 4.63588,-70.57603 -13.98089,-101.39704 -2.76512,-4.5778 -5.56274,-8.89533 -6.21694,-9.59452 -0.6542,-0.69919 -3.84698,-4.3405 -7.09507,-8.09181 -6.2854,-7.25918 -18.85005,-18.17275 -27.09438,-23.53401 -6.31418,-4.10608 -18.07311,-9.73201 -26.5,-12.67861 -27.05501,-9.46026 -58.10717,-9.45464 -84.60288,0.0153 C 249.2201,238.75273 215,286.82536 215,340.42781 c 0,47.37633 24.44476,89.08979 65.8717,112.40593 12.50808,7.03987 30.58453,13.0588 45.6283,15.1929 9.74001,1.38171 31.85061,0.3883 42.5,-1.90949 z"
       id="path1581"
       sodipodi:nodetypes="ssscsscccsscssssscccccccsscssscccsssscccccsscccccccssscccccsscccccccsscccccccsscccccssssccccccsssssssssssss" />
  </g>
</svg>
